<svg id="Layer_81" data-name="Layer 81" xmlns="http://www.w3.org/2000/svg" viewBox="0 0 269.43 416.21"><style type="text/css">path{fill:#FFFFFF;}</style><title>agenda</title><path d="M142.29,464.57c-6.56-3.05-8.64-8.36-8.64-15.36q.14-178,.07-355.95c0-.83,0-1.66,0-2.5.35-8.25,4.72-12.53,13-12.54,17.78,0,35.56-.1,53.34,0a11.14,11.14,0,0,0,8.3-3,19.5,19.5,0,0,1,13.05-5.16c7-.09,13.93-.08,20.9-.12H246c-.25-6.45,1.32-11.91,6.23-15.84a25.21,25.21,0,0,1,32.21,0c4.88,3.93,6.51,9.38,6.23,15.83,7.15,0,14-.15,20.82.06a37.77,37.77,0,0,1,10.06,1.48A21.75,21.75,0,0,1,329,75.9a9.12,9.12,0,0,0,6.65,2.36c18.09-.1,36.18,0,54.28-.07,4.3,0,8.34,1,10.58,4.74a20.18,20.18,0,0,1,2.37,8.47c.37,4.86.1,9.77.1,14.66q0,171.57,0,343.16c0,4.26-.29,8.4-3.46,11.58a39.49,39.49,0,0,1-5.14,3.77ZM380,271.06q0-82.36.07-164.74c0-3-.84-3.82-3.82-3.78-12.37.16-24.75.12-37.12,0-2.34,0-3.61.5-4.71,2.85-4.32,9.28-11.67,14.12-22.08,14.11q-44-.06-88,0c-10.41,0-17.77-4.8-22.1-14.09-1.09-2.34-2.34-2.88-4.68-2.86-12.38.1-24.76.19-37.13,0-3.36-.06-3.87,1.08-3.87,4.06q.1,164.43.06,328.85c0,4.13,0,4.14,4,4.14H375.94c4.07,0,4.07,0,4.07-4.08Z" transform="translate(-133.65 -48.36)"/><path d="M258,382.3c3.13-3.68,6.22-7.27,9.27-10.9,5.45-6.49,10.78-13.1,16.34-19.49,6.63-7.63,13-15.57,20.33-22.48s13.73-14.75,23.06-19.18a7.24,7.24,0,0,1,10.12,4.29c2.33,7,0,13.07-4.64,17.62-5.77,5.63-12.29,10.51-17.9,16.28-7.18,7.38-13.83,15.28-20.61,23-4,4.6-7.88,9.35-11.76,14.06-5.91,7.19-11.71,14.47-17.72,21.57-2.57,3-5.1,6.17-9.12,7.7-4.4,1.67-7.8,1-10.84-2.66-5-5.94-10.11-11.74-15-17.75a107.14,107.14,0,0,1-14.35-23.51c-2.18-4.84-1.59-9.54,1.12-14s5.82-8.88,11.18-10.72c4.2-1.44,6.92-.23,8.8,3.85A129.33,129.33,0,0,0,257,381.51,7.19,7.19,0,0,0,258,382.3Z" transform="translate(-133.65 -48.36)"/><path d="M358.08,187.16v18.7H178.66v-18.7Z" transform="translate(-133.65 -48.36)"/><path d="M358,290.71H178.7V271.88H358Z" transform="translate(-133.65 -48.36)"/><path d="M358.11,145.25V163.8H178.71V145.25Z" transform="translate(-133.65 -48.36)"/><path d="M358,230v18.12H178.69V230Z" transform="translate(-133.65 -48.36)"/></svg>
