<svg id="ask" xmlns="http://www.w3.org/2000/svg" viewBox="0 0 243.91 327.88"><title>ask</title><path d="M257.23,290.62c-33.91-20.65-46.77-48.13-38.46-79.81,7.31-27.83,33.35-48.69,62.06-49.69a67.32,67.32,0,0,1,66.64,46.26c10.5,31.64-1,58.32-36,83.09,7.32,1.19,14.52,1.79,21.42,3.58,31.31,8.11,54.69,37.31,55.77,69.71.46,14,0,28,.22,42,.15,8.6-3.91,11.76-12.21,11.74q-84.53-.19-169.07,0c-8.29,0-12.58-3.14-12.14-11.75.15-2.79-.2-5.62.06-8.4,2.27-25.23-1.3-46.73-21.35-66.72-21.49-21.44-28.84-51.53-29-82.23-.28-43.4-.12-86.81-.06-130.21,0-17.24,10.22-28.64,25.27-28.57,14.7.06,25.07,11.85,25.11,29,.1,38.16-.26,76.32.14,114.47A58,58,0,0,0,257.23,290.62Z" transform="translate(-144.93 -89.62)"/></svg>