<svg id="council" xmlns="http://www.w3.org/2000/svg" viewBox="0 0 301.42 357.7"><g id="black"><path d="M270.11,83.15c2.7.54,5.45.94,8.11,1.65,14,3.72,26.07,10.41,34.72,22.42a4.89,4.89,0,0,0,2.29,1.88c11.74,3.47,16.84,12.55,19.51,23.42,2.87,11.7,2.32,23.57.71,35.38-.73,5.38-1.92,10.7-2.9,16.06,6.76,1.56,9,4,8.69,11.36-.45,12.27-4.16,23.72-9.89,34.53-.64,1.2-1.53,2.65-2.67,3.14-3.7,1.61-3.85,4.95-4.83,8.11-7.37,23.79-21.28,42.23-45.19,51-21.62,8-40.54,1.15-56.8-13.8a76.25,76.25,0,0,1-23.2-40.53c-.31-1.42-1.78-2.61-2.81-3.82-1.27-1.5-3-2.71-3.9-4.39-5.78-10.9-9.63-22.42-9.83-34.87-.12-6.91,2.24-9.51,8.73-10.64-1.06-5.43-2.31-10.83-3.14-16.3-3.52-23.16,4.09-42.63,20.21-59,11-11.17,23.49-20.11,39.06-23.87,3-.73,6.1-1.18,9.15-1.76Z" transform="translate(-111.12 -83.15)"/><path d="M208.12,286.52c10.8,34,21.44,67.42,32.39,101.83.81-1.92,1.26-2.82,1.59-3.76,3.45-9.75,6.85-19.52,10.37-29.24a5.63,5.63,0,0,0-.59-5.13c-3.45-6.4-7.5-12.7-9.65-19.56-3.51-11.19,1.74-18.43,13.4-20.41a34.31,34.31,0,0,1,17.2,1.39c6.29,2.16,9.71,7.22,9.4,13.89-.37,8-3.93,14.85-8.35,21.12-3,4.23-3.62,7.79-1.59,12.64,3.39,8.14,6,16.61,9,24.93a7.29,7.29,0,0,0,2,3.21c10.62-33.46,21.24-66.91,31.95-100.67a28.34,28.34,0,0,1,2.54,1.29c19.41,12.42,39.92,22.59,62.27,28.35,22,5.65,29.24,19.64,31.86,39.11,1.88,13.9-.77,27.61-1.55,41.41-.37,6.41-3.19,9.72-8.76,12.48a292.6,292.6,0,0,1-74.43,25.11,338.85,338.85,0,0,1-98,4.76c-35.81-3.44-70.3-12-102.8-27.8-1.26-.6-2.45-1.39-3.75-1.86-6.12-2.21-9.35-6-9.5-13-.25-11.61-1.93-23.21-2-34.81,0-10.28,2.19-20.35,7.86-29.28,4.35-6.83,10.28-11.76,18.11-14a249.06,249.06,0,0,0,64.43-27.87C203.58,289.39,205.62,288.09,208.12,286.52Z" transform="translate(-111.12 -83.15)"/></g></svg>