<svg id="events" xmlns="http://www.w3.org/2000/svg" viewBox="0 0 422.94 467.83"><defs><style>.cls-1{fill:#fff;}</style></defs><g id="black"><path d="M43.25,458.13v-341a13.48,13.48,0,0,0,.88-2.52C47,92.83,60.76,80.75,82.81,80.65c15.21-.07,30.41-.26,45.62-.43,7.16-.08,8.63-1.55,8.78-8.83.12-5.9.12-11.79.22-17.69.22-13.83,7.89-23.53,21.22-26.91a10.75,10.75,0,0,0,2-1H169a12.84,12.84,0,0,0,2.09.91c12.6,3.14,19.89,11,21.23,23.87.72,6.91.37,13.93.64,20.9.32,7.78,1.31,8.71,9.18,8.72q53.52,0,107,0c6.5,0,7.83-1.28,8-8,.16-6.52-.07-13,.09-19.56A27.45,27.45,0,0,1,337.5,27.16c1.61-.42,3.22-.89,4.82-1.34h7.46a12.62,12.62,0,0,0,2,1c11.57,3.28,18.87,10.59,20.38,22.68.85,6.89.85,13.91,1,20.88.22,8.68,1.75,10.27,10.37,10.27,15.37,0,30.74-.06,46.1,0,20.68.15,36.48,16,36.52,36.64,0,16.45,0,32.9,0,49.35V453.06c0,1.86,0,3.72,0,5.58-.6,15.71-13.3,30.81-28.73,33.55a100.07,100.07,0,0,1-17.15,1.13q-68,.27-136,.32-70.77,0-141.55-.18c-21,0-41.92.27-62.85-.42-18.24-.61-31-11.77-35.11-29.14C44.31,462,43.76,460.05,43.25,458.13ZM255.17,172.22q-92.22,0-184.43,0c-2.79,0-5.57.41-8.36.37-4.89-.06-6.46,2.62-6.48,7.07-.06,9.61-.39,19.23-.4,28.85q0,119,0,238c0,1.71,0,3.42,0,5.12.9,18.43,10.55,28.89,27.11,28.89q172.55.09,345.11-.18a32.79,32.79,0,0,0,16.07-4.92c8.49-5.16,10.42-14.06,10.42-23.51q0-133.2,0-266.4c0-12.94-.36-13.3-13.66-13.3Zm-.89-12.17q94.34,0,188.66,0c2,0,4-.2,6-.33,3.67-.25,5-2.41,5-5.89,0-11.49.38-23,0-34.46-.54-17.11-10.46-26.47-27.52-26.52q-21.9-.07-43.79,0c-2,0-4.21,0-5.89.89a6.35,6.35,0,0,0-3.07,4.1c-.61,4.44-.53,9-.87,13.46-1.07,14-10.49,24.47-23.5,26.09-14.15,1.77-26.27-5.14-30.4-18.17-1.51-4.75-1.39-10-1.72-15.12C316.52,92.46,316.86,93,306,92.89c-33.69-.17-67.39-.07-101.09,0-2,0-4,.27-6,.3-4,.06-5.78,2-5.79,6,0,4.49-.32,9-.67,13.47-1.24,15.65-12.84,25.38-29.59,24.9-14-.39-24.93-11.76-25.39-26.46-.13-4-.56-8-.49-12.06.09-4.83-2.59-6-6.73-6-16,0-32-.16-48,.06s-25.37,9.31-26.1,25.36c-.48,10.68-.21,21.39-.22,32.08,0,8.57.95,9.47,9.69,9.54H254.28ZM361,81.94V56.35c0-.16,0-.31,0-.47-.43-12.61-10.83-20.36-21.75-16.05-7.41,2.93-9.66,9.36-9.78,16.52-.26,15-.19,30.08-.13,45.12a69.83,69.83,0,0,0,.79,11.1c1.16,7.06,6.38,11.73,13.58,12.63A14.71,14.71,0,0,0,359,116.05a30.14,30.14,0,0,0,2-9.91C361.22,98.08,361,90,361,81.94Zm-180.65-.16h0c0-8.84.11-17.68,0-26.52-.17-10-6.16-16.35-15.15-16.46-8.79-.12-15.38,6.45-15.5,16.22q-.33,27.21,0,54.45c.12,9.28,7,15.92,15.47,15.87,8.67-.06,15.16-7.07,15.22-16.56C180.42,99.78,180.38,90.78,180.38,81.78Z" transform="translate(-43.25 -25.82)"/><rect x="10.63" y="142.01" width="404.31" height="315.73" rx="16"/><path class="cls-1" d="M335.88,328c0-7.75-.08-15.5,0-23.24s2.74-10.43,10.39-10.5q23.25-.23,46.5,0c6.45.05,9.91,3.24,10,9.71.18,16.27.12,32.54-.08,48.81-.07,5.76-3,9.14-8.83,9.37-13,.52-26,.44-39,.54a68.49,68.49,0,0,1-9.72-.43c-6.73-.94-9.07-3.62-9.19-10.52-.14-7.9,0-15.8,0-23.71Z" transform="translate(-43.25 -25.82)"/><path class="cls-1" d="M369.93,373.43c7.45,0,14.89-.1,22.33,0,7.63.13,11.21,3.46,11.29,11.13.15,15.34.11,30.7-.2,46-.17,8-3.61,11.17-11.68,11.24q-21.85.19-43.71,0c-7.95-.07-11.31-2.79-11.52-10.73q-.65-23.68-.07-47.42c.18-8,2.93-10.06,11.24-10.18,7.44-.11,14.88,0,22.32,0Zm28.67,34.25h-.05c0-7.29.13-14.58,0-21.87-.13-5.36-1.82-7.15-7-7.19-14.58-.11-29.17,0-43.75,0-4.35,0-6.72,2-6.7,6.44,0,15.8,0,31.6.37,47.39,0,1.21,2.37,3.36,3.69,3.4,15.48.46,31,.82,46.45.72,5.3,0,6.87-2.36,7-7.91C398.68,421.64,398.6,414.66,398.6,407.68Z" transform="translate(-43.25 -25.82)"/><path class="cls-1" d="M294.3,373.47c7.75,0,15.51-.15,23.25,0,6.53.16,10.15,3.16,10.23,9.6q.35,24.63-.35,49.26c-.19,6.43-3.35,9.29-9.83,9.4q-23.25.41-46.5,0c-6.8-.13-9.93-2.93-10.11-9.62q-.63-24.62-.09-49.27c.16-7,3.05-9.16,10.15-9.33,7.74-.18,15.5,0,23.25,0Zm-.27,5.09c-6.67,0-13.34,0-20,0-6.9.06-8.57,1.06-8.66,7.92-.2,15.34.17,30.68.58,46,0,1.16,2.09,3.23,3.25,3.26,15.63.45,31.27.75,46.91.77,4.51,0,7-2.73,7-7.52-.09-14.43,0-28.85-.17-43.27-.08-5.55-1.87-7.08-7.47-7.16C308.31,378.48,301.17,378.57,294,378.56Z" transform="translate(-43.25 -25.82)"/><path class="cls-1" d="M249.71,328.22c0,7.28.09,14.57,0,21.86-.14,8.88-3.07,12.31-11.91,12.52q-21.86.5-43.72,0c-8.39-.2-11.25-2.95-11.46-11.35q-.57-23.48,0-47c.19-7.81,2.93-9.94,10.91-10,14.73-.11,29.46-.06,44.19,0,8.65,0,12.16,3.55,12.15,12.13v21.86Zm-4.84,0h-.13c0-7.45,0-14.89,0-22.34,0-4-1.91-6.51-6.19-6.52-15,0-30.05,0-45.08,0-4.11,0-6,2.21-6,6,0,15.95,0,31.91.32,47.86,0,1.15,2.08,3.12,3.36,3.26,5.68.64,11.41.94,17.13,1,9.15.13,18.32.2,27.46-.07,7.38-.22,9.11-2.18,9.18-9.25C244.92,341.55,244.87,334.88,244.87,328.21Z" transform="translate(-43.25 -25.82)"/><path class="cls-1" d="M174.47,407.63c0,7.75.14,15.5,0,23.25-.17,7.28-3.26,10.78-10.46,10.92q-23,.42-46,0c-7.37-.14-10.24-3.33-10.33-10.86q-.28-23.7,0-47.42c.09-7.21,2.77-9.84,10-9.93q23.25-.3,46.5-.06c7.1.07,10.33,3.66,10.4,10.86.09,7.75,0,15.5,0,23.25ZM112,407.35h.2c0,7.9-.06,15.81,0,23.72,0,2.87.91,5,4.53,5,15.33.09,30.67.44,46,.47,4.62,0,7.09-2.86,7.1-7.48,0-14.42.15-28.85-.15-43.27-.12-5.77-2-7.18-8-7.21q-20.94-.12-41.89,0c-6,0-7.66,1.66-7.8,7.82C111.92,393.39,112,400.37,112,407.35Z" transform="translate(-43.25 -25.82)"/><path class="cls-1" d="M183.08,407.48c0-7.9-.12-15.81,0-23.71.14-7.26,2.67-10.08,9.77-10.18q23.48-.31,47,0c6.8.07,10,3.37,10.12,10.09q.21,24,0,47.9c-.07,6.9-3.61,10.19-11,10.33-11.62.2-23.25.12-34.87.08a96.44,96.44,0,0,1-12.51-.49c-5.81-.79-8.19-3.5-8.32-9.32-.2-8.21-.05-16.43-.05-24.65Zm33.46-28.9v0c-6.51,0-13,0-19.55,0-8,0-9.42,1.37-9.47,9.54-.09,12.88,0,25.76,0,38.64,0,1.85.36,3.69.49,5.55.17,2.35,1.15,3.63,3.73,3.7,3.09.08,6.16.72,9.24.74q17.45.15,34.9,0c6.64-.05,9.37-1.83,9.46-7.07q.36-22.1,0-44.2c-.09-5.27-2-6.78-7.36-6.87C230.82,378.48,223.68,378.58,216.54,378.58Z" transform="translate(-43.25 -25.82)"/><path class="cls-1" d="M140.6,294.23c7.44,0,14.89-.06,22.33,0s11.06,3,11.15,10.13c.22,16.25,0,32.51-.39,48.75-.16,6.13-2.8,8.89-9,9.05-15.79.43-31.6.6-47.38.16-7.71-.21-10.09-2.94-10.28-10.92q-.54-23.48,0-47c.18-7.84,3-10.05,10.79-10.18C125.4,294.13,133,294.23,140.6,294.23Zm28.65,33.92h-.07c0-7.44,0-14.89,0-22.34,0-4.05-2-6.45-6.23-6.47-14.42-.08-28.85-.38-43.26-.09-6.88.14-8.08,1.41-8.16,8.48-.17,14.73.3,29.46.38,44.19,0,3.26,1.13,4.81,4.55,4.87,9.75.17,19.51.62,29.26.75,5.73.07,11.48-.1,17.2-.45,4.22-.25,6.37-2.74,6.35-7.06C169.23,342.74,169.25,335.45,169.25,328.15Z" transform="translate(-43.25 -25.82)"/><path class="cls-1" d="M260.42,328.15c0-8.21-.18-16.43.05-24.64.18-6.43,2.73-9.06,9.23-9.14q24.18-.3,48.36-.05c5.75.06,9.17,3.66,9.21,9.53q.18,24.18,0,48.37c-.08,6.41-2.84,9.79-9.25,10-15.93.43-31.89.18-47.83.19a9.61,9.61,0,0,1-1.84-.27c-5.15-1-7.65-3.56-7.78-8.85-.21-8.36-.06-16.74-.06-25.11Zm4.42,0h.23c0,7.91-.05,15.82,0,23.73,0,2.93,1,4.93,4.63,4.95,5.57,0,11.13.65,16.69.73,8.84.13,17.69.18,26.53,0,7.84-.18,9.79-2.36,9.87-10.19.05-5.28,0-10.56,0-15.83,0-7.91.13-15.83-.08-23.74-.18-6.64-1.67-8.49-8.25-8.6-14.11-.24-28.23-.13-42.33.21-5.9.14-7.18,1.83-7.3,7.83C264.74,314.17,264.84,321.15,264.84,328.13Z" transform="translate(-43.25 -25.82)"/><path class="cls-1" d="M368.86,284.77c-7.75,0-15.5.2-23.24-.06-6.71-.22-9.68-3.09-9.77-9.8q-.33-24.39,0-48.77c.09-6.87,2.53-9.18,9.46-9.31,12.55-.23,25.11-.12,37.67-.13,3.55,0,7.12-.2,10.63.12,5.9.53,8.94,3.3,9,9.21.23,16.27.25,32.56-.09,48.83-.14,6.79-3.56,9.69-10.41,9.86C384.37,284.91,376.61,284.77,368.86,284.77Zm-28.58-33.44h.11c0,7.6,0,15.2,0,22.8,0,3.15,1.25,5.07,4.54,5.1,15.49.11,31,.23,46.46.22,4.08,0,6.44-2.45,6.47-6.43.11-14.88.07-29.77,0-44.65,0-4.8-2.89-6.92-7.5-6.93-14.27,0-28.54-.1-42.81.06-5.3.06-7,1.76-7.18,7C340.11,236.13,340.28,243.74,340.28,251.33Z" transform="translate(-43.25 -25.82)"/><path class="cls-1" d="M293.85,284.81c-7.75,0-15.5.19-23.25-.06-7.16-.23-10.14-2.75-10.27-9.78q-.48-24.84,0-49.7c.13-6.21,2.58-8.26,8.82-8.38,12.71-.25,25.42-.16,38.14-.19,3.54,0,7.11-.22,10.63.11,5.88.55,9,3.36,9.11,9.16.23,16.27.26,32.55-.14,48.81-.17,7.12-3.48,9.78-10.76,10-7.43.18-14.88,0-22.32,0Zm-.37-63.39c-7,0-14-.12-21,0-5.93.13-7.7,1.66-7.76,7.46-.14,15,.1,30.06.05,45.09,0,3.52,1.51,5.21,4.87,5.24,14.87.16,29.75.52,44.62.26,6.55-.11,8-1.69,8.12-8.22.23-14.11.1-28.23-.28-42.33-.16-6.06-2-7.41-8.18-7.52C307.14,221.32,300.31,221.42,293.48,221.42Z" transform="translate(-43.25 -25.82)"/><path class="cls-1" d="M106.72,250.83c0-7.9-.13-15.81,0-23.71.16-7.59,2.6-10.22,10-10.32,15.79-.19,31.59-.33,47.37,0,6.71.14,9.51,3.4,9.55,10.06q.17,23.94-.16,47.88c-.08,6.47-3.38,9.86-9.76,9.95-15.18.21-30.38.32-45.56.12-8.59-.11-11.35-3.13-11.51-11.66-.14-7.44,0-14.88,0-22.33Zm62.37-.28c0-7.14.09-14.28,0-21.42-.1-5.35-2-7.54-7.28-7.61-14.43-.17-28.86-.06-43.29-.06-4.53,0-7.1,2.39-7.11,6.79,0,15.51.21,31,.29,46.52,0,3.13,1.62,4.45,4.53,4.46,15.49.09,31,.23,46.47.18,4.33,0,6.38-2.77,6.41-7C169.13,265.13,169.1,257.84,169.09,250.55Z" transform="translate(-43.25 -25.82)"/><path class="cls-1" d="M249.24,250.62c0,7.75.16,15.5,0,23.25s-3.16,10.75-10.81,10.86c-14.72.22-29.45.31-44.17.14-9.05-.11-11.86-3.05-12-12.22q-.24-22.32,0-44.64c.09-8.74,2.51-11.19,11.05-11.27,15.33-.14,30.66-.34,46,0,7.57.2,9.9,3.33,10,11s0,15.19,0,22.79Zm-4.58.26h0c0-7.29.12-14.59-.05-21.88-.12-5.38-2-7.45-7.36-7.51-14.27-.16-28.55,0-42.83-.06-4.71,0-7.45,2.29-7.45,7,0,15.35.28,30.69.27,46,0,3.83,2.07,4.85,5.17,4.88,14.88.14,29.75.43,44.62.19,6.23-.09,7.61-2.15,7.66-8.6C244.71,264.23,244.66,257.56,244.66,250.88Z" transform="translate(-43.25 -25.82)"/></g></svg>