<svg id="file" xmlns="http://www.w3.org/2000/svg" viewBox="0 0 256.81 333.7"><style type="text/css">path{fill:#FFFFFF;}</style><title>website-icons</title><path d="M136.07,256.16c0-37.91-.16-75.82.06-113.73.13-21.9,10.05-38.14,29.79-48a49.26,49.26,0,0,1,22.17-4.83q50.22,0,100.44,0c9.31,0,16.74,4.38,23.64,10a132.16,132.16,0,0,1,10.52,9.26c18.29,18.27,36.6,36.51,54.6,55.05,4.49,4.63,8.08,10.2,11.66,15.62,3,4.5,3.87,9.77,3.87,15.16q0,87.7,0,175.4c0,30.8-22.37,53.18-53.1,53.21q-75.33.08-150.66,0c-30.53,0-52.9-22.42-53-53Q136,313.2,136.07,256.16Zm25.52.31q0,56.68,0,113.38c0,17.14,10.74,27.92,27.87,27.94q75,.06,149.93,0a33.21,33.21,0,0,0,8-.8c12.64-3.23,19.83-13.1,19.84-27.12q0-81.24,0-162.48c0-1.36-.12-2.71-.19-4.06-.26-4.42-2.6-7.59-6.64-8.89a40.86,40.86,0,0,0-11.51-2.1c-14.65-.28-29.3-.19-43.94-.26-9.92,0-14.68-4.81-14.72-14.77,0-14.4.05-28.8-.17-43.2a45.66,45.66,0,0,0-1.64-11.63c-1.51-5.28-5-7.47-10.48-7.47q-44.31,0-88.63.08a32.66,32.66,0,0,0-8,.84c-12.55,3.27-19.71,13-19.73,26.82Q161.54,199.61,161.59,256.47Z" transform="translate(-136.01 -89.58)"/></svg>
