<svg id="folder" xmlns="http://www.w3.org/2000/svg" viewBox="0 0 421.87 318.28"><defs><style>.cls-0{fill:#808080;}.cls-1{fill:#fff;}</style></defs><title>folder</title><path class="cls-0" d="M471.43,191.38v8.44a18.35,18.35,0,0,0-1.05,2.87Q452.49,303,434.64,403.28c-2.7,15.19-9.59,21-25.2,21H111c-10.37,0-20.74.08-31.11,0-18.32-.18-30.33-12.3-30.34-30.48q0-43.5,0-87,0-69.59,0-139.19c0-17,11.79-28.77,28.82-28.94a81,81,0,0,1,9.48.06c3.89.4,6.19-1.28,8.09-4.47,3-5,6.12-9.83,9.41-14.6,6.47-9.39,15.34-13.87,26.91-13.59,13.7.32,27.42.35,41.12,0,14.43-.38,25,5.79,32.44,17.77A78.83,78.83,0,0,1,211,133c1.87,4.12,4.42,5.78,9.28,5.75,35.5-.26,71-.14,106.51-.14,25.48,0,51-.06,76.45,0,17,.06,28.79,11.82,29,28.81,0,3.17.15,6.34,0,9.49-.21,3.58,1.1,5.13,4.84,5,5.44-.22,10.93.3,16.34-.14C461.61,181.14,467.73,183.82,471.43,191.38ZM71.72,353.73l1.06.13a21.75,21.75,0,0,0,.88-2.81Q87,276.17,100.21,201.27c2.27-12.84,9.78-19.38,22.74-19.38q137.84,0,275.68,0c12.26,0,11.45,2.09,11.45-11.6,0-8.22-1.24-9.47-9.4-9.47-61.15,0-122.29-.08-183.44.08-9.94,0-17.26-4-22.5-12.09-2.58-4-4.7-8.22-7-12.35-3.2-5.65-7.59-8.58-14.55-8.29a291.87,291.87,0,0,1-34.24-.07c-9.87-.74-16.32,3-20.32,11.47-7.7,16.24-20,23.52-38.15,21.4-7.36-.86-8.73,1.19-8.73,8.85V353.73Z" transform="translate(-49.56 -106.04)"/><path class="cls-1" d="M71.72,353.73V169.8c0-7.66,1.37-9.71,8.73-8.85,18.14,2.12,30.45-5.16,38.15-21.4,4-8.44,10.45-12.21,20.32-11.47a291.87,291.87,0,0,0,34.24.07c7-.29,11.35,2.64,14.55,8.29,2.33,4.13,4.45,8.38,7,12.35,5.24,8.09,12.56,12.11,22.5,12.09,61.15-.16,122.29-.08,183.44-.08,8.16,0,9.4,1.25,9.4,9.47,0,13.69.81,11.59-11.45,11.6q-137.83.06-275.68,0c-13,0-20.47,6.54-22.74,19.38Q87,276.18,73.66,351.05a21.75,21.75,0,0,1-.88,2.81Z" transform="translate(-49.56 -106.04)"/></svg>
