<?xml version="1.0" encoding="utf-8"?>
<!-- Generator: Adobe Illustrator 25.0.0, SVG Export Plug-In . SVG Version: 6.00 Build 0)  -->
<svg version="1.1" id="folder" xmlns="http://www.w3.org/2000/svg" xmlns:xlink="http://www.w3.org/1999/xlink" x="0px" y="0px"
	 viewBox="0 0 421.9 318.3" style="enable-background:new 0 0 421.9 318.3;" xml:space="preserve">
<style type="text/css">
	.st0{fill:#2575AA;}
	.st1{fill:#FFFFFF;}
</style>
<path class="st0" d="M421.9,85.3v8.4c-0.4,0.9-0.8,1.9-1,2.9c-11.9,66.9-23.8,133.7-35.7,200.6c-2.7,15.2-9.6,21-25.2,21H61.4
	c-10.4,0-20.7,0.1-31.1,0C12,318.1,0,305.9,0,287.8c0-29,0-58,0-87C0,154.4,0,108,0,61.6c0-17,11.8-28.8,28.8-28.9
	c3.2-0.2,6.3-0.1,9.5,0.1c3.9,0.4,6.2-1.3,8.1-4.5c3-5,6.1-9.8,9.4-14.6C62.3,4.2,71.1-0.3,82.7,0c13.7,0.3,27.4,0.3,41.1,0
	c14.4-0.4,25,5.8,32.4,17.8c1.9,2.9,3.7,6,5.2,9.2c1.9,4.1,4.4,5.8,9.3,5.8c35.5-0.3,71-0.1,106.5-0.1c25.5,0,51-0.1,76.4,0
	c17,0.1,28.8,11.8,29,28.8c0,3.2,0.1,6.3,0,9.5c-0.2,3.6,1.1,5.1,4.8,5c5.4-0.2,10.9,0.3,16.3-0.1C412,75.1,418.2,77.8,421.9,85.3z
	 M22.2,247.7l1.1,0.1c0.4-0.9,0.7-1.9,0.9-2.8c8.9-49.9,17.7-99.8,26.6-149.8c2.3-12.8,9.8-19.4,22.7-19.4c91.9,0,183.8,0,275.7,0
	c12.3,0,11.5,2.1,11.5-11.6c0-8.2-1.2-9.5-9.4-9.5c-61.1,0-122.3-0.1-183.4,0.1c-9.9,0-17.3-4-22.5-12.1c-2.6-4-4.7-8.2-7-12.4
	c-3.2-5.6-7.6-8.6-14.6-8.3c-11.4,0.6-22.8,0.6-34.2-0.1c-9.9-0.7-16.3,3-20.3,11.5c-7.7,16.2-20,23.5-38.1,21.4
	c-7.4-0.9-8.7,1.2-8.7,8.9L22.2,247.7L22.2,247.7z"/>
<path class="st1" d="M22.2,247.7V63.8c0-7.7,1.4-9.7,8.7-8.9C49,57,61.3,49.7,69,33.5c4-8.4,10.5-12.2,20.3-11.5
	c11.4,0.7,22.8,0.7,34.2,0.1c7-0.3,11.4,2.6,14.6,8.3c2.3,4.1,4.4,8.4,7,12.4c5.2,8.1,12.6,12.1,22.5,12.1
	c61.2-0.2,122.3-0.1,183.4-0.1c8.2,0,9.4,1.2,9.4,9.5c0,13.7,0.8,11.6-11.5,11.6c-91.9,0-183.8,0-275.7,0c-13,0-20.5,6.5-22.7,19.4
	c-8.8,50-17.6,99.9-26.5,149.8c-0.2,1-0.5,1.9-0.9,2.8L22.2,247.7z"/>
</svg>
