<svg id="home" xmlns="http://www.w3.org/2000/svg" viewBox="0 0 421.88 335.77"><title>home</title><path d="M45.85,257.05c1.76-2.08,3.25-4.47,5.31-6.18Q143,174.22,234.88,97.71c13.87-11.56,30.26-11.38,44.17.28,20.11,16.87,40.28,33.67,61.16,51.12.1-2.27.23-3.83.23-5.38,0-14.06,0-28.11,0-42.17,0-8.84,2.66-11.48,11.47-11.49h44c9.26,0,11.53,2.29,11.53,11.71,0,32.86.06,65.71-.07,98.56a9,9,0,0,0,3.61,7.77c17.11,14.06,34.1,28.27,51.15,42.4,6.9,5.72,7.35,9.67,1.65,16.55-4.1,4.94-8.24,9.83-12.38,14.73-5.19,6.15-9.4,6.59-15.61,1.41q-60.37-50.3-120.72-100.63-28.14-23.49-56.3-47c-.57-.48-1.19-.89-2.05-1.54q-14.87,12.36-29.6,24.62L78.64,282.54c-7.32,6.1-11.19,5.7-17.25-1.74C56.19,274.42,51,268,45.85,261.63Z" transform="translate(-45.85 -89.14)"/><path d="M290.35,424.91V324.8h-66.9V424.91h-5.11q-46.32,0-92.62,0c-13.23,0-19.54-6.36-19.54-19.72q0-59.61,0-119.21c0-2.84.29-5.11,2.83-7.19Q181.76,219,254.37,159c.7-.58,1.44-1.11,2.51-1.93q13.39,11,26.79,22,59.77,49.25,119.58,98.45a10.71,10.71,0,0,1,4.29,9.31c-.13,39.12-.07,78.25-.08,117.37,0,14.7-5.92,20.68-20.46,20.68H290.35Z" transform="translate(-45.85 -89.14)"/></svg>