<svg xmlns="http://www.w3.org/2000/svg" viewBox="0 0 445.44 445.44"><defs><style>.cls-1{fill:none;stroke:#000;stroke-miterlimit:10;stroke-width:15px;}</style></defs><title>nextdoor_1</title><g id="Layer_2" data-name="Layer 2"><g id="Instagram"><g id="black"><circle class="cls-1" cx="222.72" cy="222.72" r="215.22"/><path d="M222.54,333.88c-16.29,0-32.58.07-48.87,0-35.31-.18-62-26-62.42-61.17-.44-33.19-.38-66.39,0-99.58.39-35.54,27-61.42,62.8-61.52q48.87-.13,97.75,0c35.3.12,62,26,62.41,61.16.44,33.19.38,66.39,0,99.58-.39,35.54-27,61.38-62.8,61.52C255.12,333.94,238.83,333.88,222.54,333.88Zm92.13-111.33c0-16.46.13-32.93,0-49.39-.22-22.73-16.58-41.13-39.39-41.74q-52.33-1.41-104.72,0c-23.2.6-39.63,19-39.73,42.14q-.23,49,0,98.09c.09,23.83,16.83,42.06,40.81,42.61q50.93,1.15,101.9,0c24.37-.51,41-18.69,41.16-43C314.75,255,314.68,238.78,314.67,222.55Z"/><path d="M280,223.77C279.13,256.41,253,281,220.09,280c-30.6-.91-55.76-27.92-54.66-58.65,1.17-32.45,27-56.68,59.56-55.88C255.63,166.21,280.87,193,280,223.77ZM222.91,260.3c20.87-.07,37.87-17.09,37.72-37.76a37.79,37.79,0,0,0-38.1-37.38c-20.87.08-37.87,17.1-37.72,37.77A37.78,37.78,0,0,0,222.91,260.3Z"/><path d="M296.86,162.67c.16,8.22-5.74,14.38-13.9,14.5a14.45,14.45,0,0,1-14.86-13.84c-.21-7.48,6.59-14.53,14.21-14.74A14.2,14.2,0,0,1,296.86,162.67Z"/></g></g></g></svg>