<svg id="megaphone" xmlns="http://www.w3.org/2000/svg" viewBox="0 0 259.65 235.09"><title>megaphone</title><path d="M330.49,161.41C344.65,174,350,191.2,354.14,208.66c10.43,43.49,10.18,87.12.12,130.65-3,13.11-7.34,25.85-14.43,37.42a51.25,51.25,0,0,1-6.49,8.59c-7.82,8.24-17.88,8.83-26,.86A94.72,94.72,0,0,1,294.4,370c-16-24.69-38.36-40.93-66.26-49.66a34.63,34.63,0,0,0-11.91-1.55c-6.23.31-10,4.64-10.11,10.87-.18,11.79-.31,23.59-.05,35.38.06,2.7,1.6,5.44,2.79,8,.9,1.94,2.42,3.58,3.51,5.44,4.08,6.94.1,14.73-8,15.38a69.31,69.31,0,0,1-8.64-.18c-8.54-.41-17.08-1-25.62-1.25a9,9,0,0,1-7.92-4.75,26.52,26.52,0,0,1-3.63-13.94c.06-14.14,0-28.28.2-42.42.07-4.35-1.42-7.44-5.16-9.6-5.58-3.22-9.78-7.58-11.46-14.05a2.91,2.91,0,0,0-2.12-1.46,75.51,75.51,0,0,0-8.87-.79,22.48,22.48,0,0,1-16.37-7.22c-17.43-18.1-16.4-41.15.79-57.53,4.55-4.33,10.11-6.1,16.55-6,29.24.72,58.36-.41,87-7a152.3,152.3,0,0,0,40.66-15.1c14.26-8,25.72-19,35.21-32.17,2.94-4.09,6.06-8.06,9.16-12,5.28-6.78,11.95-10.53,20.82-9.38Zm-4.64,183.42a175.47,175.47,0,0,0,10.68-45.15c3.31-31.23.65-61.88-9.36-91.73a88.09,88.09,0,0,0-6.5-13.89c-1.42-2.6-3-2.56-4.8-.13a56,56,0,0,0-4.94,8,143.17,143.17,0,0,0-11.79,35.26c-6.66,32.39-5.76,64.46,4.56,96,2.49,7.63,5.38,15.14,10.4,21.56,2.35,3,3.72,3.05,5.81,0S323.89,348.16,325.85,344.83Z" transform="translate(-102.23 -158.81)"/></svg>