<svg xmlns="http://www.w3.org/2000/svg" viewBox="0 0 445.44 445.44"><defs><style>.cls-1{fill:none;stroke:#000;stroke-miterlimit:10;stroke-width:15px;}</style></defs><title>Asset 16</title><g id="Layer_2" data-name="Layer 2"><g id="Nextdoor"><g id="black"><circle class="cls-1" cx="222.72" cy="222.72" r="215.22"/><path d="M316.62,217.87v11.72c0,32.46-.2,64.92.15,97.37.08,7.06-2.1,9.13-9,9.1q-84.68-.33-169.36,0c-7.11,0-9.68-1.81-9.58-9.4.42-32.46.18-64.92.18-97.37v-11.4l-26.84,15.8L79.63,197.23c13.46-8.23,26.26-16.7,39.69-24,7.6-4.15,10.33-9.16,9.84-17.71-.76-13,0-26.07-.29-39.1-.1-5.06,1.34-7.19,6.75-7,9.57.36,19.19.43,28.75,0,6.23-.29,7.9,2.38,7.69,8-.27,7.06-.07,14.15-.07,23.4,13.41-8.13,25.32-14.16,35.83-22.06s18.46-7.39,29.6-.29c39.92,25.45,80.68,49.58,121.12,74.23,2.22,1.35,4.37,2.83,7.27,4.73L343.3,233.7Z"/></g></g></g></svg>