<svg id="pay" xmlns="http://www.w3.org/2000/svg" viewBox="0 0 381.31 304.56"><title>pay</title><path d="M257.1,200.35c-8.46,15.76-21,26.26-35.19,35.07a14.93,14.93,0,0,1-7.4,2c-18.15.17-36.3.09-54.45.1H156c-.26-6.67.44-12.64,4.22-17.79,15.12-20.58,30.2-41.2,45.55-61.62a199.13,199.13,0,0,1,15.6-18c13.76-14.29,30-19.82,49.7-14.11,28.47,8.26,56.2,18.55,83.74,29.44,21.94,8.68,44.48,15.32,67.93,18.53,2.89.4,5.79.67,8.68,1,9.11.95,15.91,7.74,16,16.77q.22,45.49,0,91c0,5.43-2.52,9.91-6.77,13.38-8.3,6.78-17.79,11.43-27.66,15.33a219.33,219.33,0,0,1-69.08,15c-15.59.86-30.56-2.08-45.09-7.49a82.29,82.29,0,0,0-31.06-5.22c-17.35.39-34.71.18-52.06.07-9.69-.07-19.29-1-28.45-4.52-12.62-4.92-19.17-14-19.27-26.78s6.21-22.13,18.7-27.18c9.1-3.69,18.72-4.66,28.42-4.71,23.31-.11,46.62,0,69.94,0h4.63c-8-6.53-15.11-13.4-20.64-21.84A87.62,87.62,0,0,1,257.1,200.35Z" transform="translate(-66.15 -123.81)"/><path d="M162.16,250.61a44.2,44.2,0,0,0-10.74,25H91.47v64h5.17c70.08.09,140.17,0,210.25.43,8.47.05,16.94,2.55,26.06,4v3.84q0,26.82,0,53.65c0,15.92-10.79,26.75-26.66,26.75q-106.53,0-213,0c-16.42,0-27.06-10.74-27.07-27.16q0-61.6,0-123.21c0-16.76,10.55-27.35,27.26-27.37q32.39,0,64.78,0Zm-70.64,127V403H307.58v-25.3Z" transform="translate(-66.15 -123.81)"/></svg>