<svg id="Locations" xmlns="http://www.w3.org/2000/svg" viewBox="0 0 225.53 356.08"><defs><style>.cls-1{fill:#1e1e1e;}</style></defs><g id="black"><path class="cls-1" d="M361.2,156.59C344.91,80.19,259.64,44.74,194,82.09c-54.74,31.14-70.19,100.1-41.8,151.53,9.48,17.18,20.92,33.37,32.44,49.31,23.3,32.27,42.45,66.63,55,104.45,3.41,10.26,5.64,20.91,8.64,31.31.48,1.68,2.12,3,3.23,4.52,1-1.58,2.31-3,2.87-4.77.8-2.45.95-5.1,1.52-7.64,9.2-41.26,27.38-78.47,50.94-113.3,12.58-18.59,25.4-37.05,37-56.26,11.67-19.38,19.57-40.33,19.94-63.59C362.94,170.62,362.67,163.48,361.2,156.59ZM251,260.47c-41.13,0-77.22-36.7-76.81-79.89.5-51.88,43.76-78.59,77.19-77.79,44.21,1.06,78.14,33.72,78.16,77.38C329.54,224.64,294.47,260.49,251,260.47Z" transform="translate(-138.23 -67.13)"/><circle class="cls-1" cx="112.38" cy="109.21" r="19.8"/></g></svg>