<svg id="pothole" xmlns="http://www.w3.org/2000/svg" viewBox="0 0 434.39 356.08"><defs><style>.cls-1{fill:#fff;}</style></defs><path d="M32.25,459.52v-50h68c-29.31-17.4-12.57-42.66-14.59-64.21l-28.86-4.19c4.41-35.35,8.08-69.92,13.29-104.26,2.59-17.07,14.23-27.77,30.49-33.83,4.48-1.66,9.41-5.13,11.68-9.15,12.48-22.06,24.13-44.58,36.2-66.87,9-16.63,23.25-25.36,42-23.22,55.07,6.31,110,13.46,165,20.37,20.77,2.61,33.16,14.46,38.09,34.72,5.9,24.26,11.89,48.51,18.5,72.59,1.14,4.18,4.8,8.58,8.52,11,14.28,9.2,23.41,22.15,22,38.74-3,35.27-8.07,70.37-12.37,106.15l-29.21-3c-5.55,19.26,0,40.68-20,56.33,8.6-1.32,13.92-2.73,19.27-2.85,13.46-.32,22.56-5.11,24.53-19.81.37-2.76,3.92-7.11,6.22-7.26,11.83-.73,23.72-.34,35.65-.34v48.47H453.11q-203.39,0-406.78,0C41.63,458.91,36.94,459.31,32.25,459.52ZM382.39,235c-5.87-24.27-10.78-47.56-17.56-70.3-1.5-5-9.15-10.54-14.76-11.57-19.91-3.68-40.16-5.54-60.29-8q-48-6-96-11.87c-8-1-15.69-.55-19.95,7.41-11.25,21-22.11,42.17-33.33,63.67a36.91,36.91,0,0,0,5.1,1.58c35.22,4.41,70.43,8.89,105.69,12.88,2.6.29,6.35-2.35,8.28-4.69,6.32-7.7,14.08-11.07,23.89-9.91,15.83,1.87,31.66,3.69,47.48,5.64,10.46,1.3,18.24,6.21,22.6,16.3,1.11,2.55,3.74,5.67,6.17,6.2C366.69,233.77,373.89,234.06,382.39,235Zm-258.6,175.3h10.77c50,0,100.07,1.17,150-.6,22.73-.8,40,3.76,51.38,24.27,0,0,15.46,15.1,27.27,9.25-22.19-11.51-24.65-16.15-22.12-42.6.75-7.76,1.6-15.5,2.45-23.7l-200.2-24.66C137.31,372.49,144.18,395.61,123.79,410.28ZM382,266.15c-14.12.06-25.78,12-25.94,26.66s11.21,26.84,25.4,27.12,26.91-12.69,26.75-27.29S396.19,266.1,382,266.15ZM125.72,287.93c14.53.14,26-11.12,26.35-25.89.38-15.52-10.8-27.24-25.94-27.2-14.24,0-25.83,11.8-26.07,26.42A26.2,26.2,0,0,0,125.72,287.93Z" transform="translate(-32.25 -103.44)"/><path class="cls-1" d="M380.94,235c-8.49-.92-15.69-1.21-22.64-2.7-2.43-.53-5.06-3.65-6.17-6.2-4.36-10.09-12.14-15-22.6-16.3-15.82-1.95-31.65-3.77-47.48-5.64-9.82-1.16-17.57,2.21-23.89,9.91-1.93,2.34-5.68,5-8.28,4.69-35.27-4-70.48-8.47-105.69-12.88a36.91,36.91,0,0,1-5.1-1.58c11.22-21.5,22.08-42.69,33.33-63.67,4.26-8,12-8.4,20-7.41q48,6,96,11.87c20.13,2.5,40.38,4.36,60.29,8,5.6,1,13.26,6.55,14.76,11.57C370.17,187.42,375.08,210.71,380.94,235ZM308.67,157.5a22.53,22.53,0,0,0,.08,45.05c12.3,0,22.59-10.69,22.29-23.11C330.74,167.47,320.53,157.46,308.67,157.5Z" transform="translate(-32.25 -103.44)"/><path class="cls-1" d="M380.6,266.15c14.15,0,26,12,26.2,26.49s-12.53,27.57-26.74,27.29-25.56-12.42-25.4-27.12S366.48,266.21,380.6,266.15Z" transform="translate(-32.25 -103.44)"/><path class="cls-1" d="M124.28,287.93a26.2,26.2,0,0,1-25.66-26.67c.24-14.62,11.83-26.38,26.07-26.42,15.14,0,26.32,11.68,25.94,27.2C150.26,276.81,138.81,288.07,124.28,287.93Z" transform="translate(-32.25 -103.44)"/><path d="M308.67,157.5c11.86,0,22.07,10,22.37,21.94.3,12.42-10,23.09-22.29,23.11a22.53,22.53,0,0,1-.08-45.05Z" transform="translate(-32.25 -103.44)"/></svg>