<svg id="send_report" data-name="send report" xmlns="http://www.w3.org/2000/svg" viewBox="0 0 453.53 343.57"><defs><style>.cls-1{fill:#fff;}</style></defs><g id="black"><path d="M21.77,206.69c0,45.76.1,125.38,0,172.28-.1,44.58,43.11,62.14,65.72,62.12,91.64-.06,249.62,0,329.61,0,36.68,0,55.11-41.28,55.68-62.12,1-37.15,4.52-135.22,1-174.94-7.49-83.59-112.6-51.84-118.94-64.32-24-47.37-38.66-41.94-47.14-42.06-9.89-.13-106.44.39-118.88.39-29.87,0-29,43.27-45.91,44.08-36.69,1.75-40.69,1.59-67.07,4.76C55.79,149.29,21.77,171.35,21.77,206.69Z" transform="translate(-21.77 -97.52)"/><rect class="cls-1" x="304.5" y="75.28" width="30.61" height="30.61" rx="10.45"/><path d="M67.72,30.27h33.87a10.67,10.67,0,0,1,10.67,10.67V54.33a0,0,0,0,1,0,0h-56a0,0,0,0,1,0,0V41.76A11.49,11.49,0,0,1,67.72,30.27Z"/><path class="cls-1" d="M248.66,183.42a110,110,0,1,0,110,110A110,110,0,0,0,248.66,183.42Zm0,196.66a86.69,86.69,0,1,1,86.69-86.69A86.69,86.69,0,0,1,248.66,380.08Z" transform="translate(-21.77 -97.52)"/><path class="cls-1" d="M330.36,294.38s-36.57,39.93-81.68,39.93S167,294.38,167,294.38s36.57-39.94,81.69-39.94S330.36,294.38,330.36,294.38Z" transform="translate(-21.77 -97.52)"/><circle cx="226.91" cy="196.86" r="27.65"/><circle class="cls-1" cx="233.33" cy="190.43" r="8.44"/><polygon class="cls-1" points="73 197.43 107.85 222.6 107.85 172.27 73 197.43"/></g></svg>