<svg id="services" xmlns="http://www.w3.org/2000/svg" viewBox="0 0 382.98 375.24"><path d="M263.23,437.9c-33.84-11.22-65.1-28.27-97.34-43.1-9.35-4.3-18.39-9.43-28.74-11.16-3.11-.52-6.22-1.06-9.34-1.33-6.9-.57-9.08-4.3-9.12-10.69-.11-16.2-.06-32.41-.07-48.61,0-7.61,0-15.21,0-22.82,0-5.31,1.83-7.77,6.92-9.26a269.92,269.92,0,0,1,50.12-10.2c11.54-1.12,23.06-1.63,34.57-.37a124.22,124.22,0,0,1,39.09,10.86c5.45,2.53,10.81,5.24,16.14,8a60.34,60.34,0,0,0,24.06,6.46c21.76,1.49,43.44,3.53,64.35,10.2a50.91,50.91,0,0,1,11.7,5.46,17.28,17.28,0,0,1,6.25,21.44c-3.58,8.61-9.07,15.07-18.7,16.05-5.72.58-11.61-.32-17.42-.71-12.51-.83-25-1.92-37.51-2.6-8.67-.47-17.35-.52-26-.6-2.91,0-5.83.43-9.36.71a8.94,8.94,0,0,0,1.42,1.19c12,5.69,24.25,10.87,37.47,13.21,8.76,1.55,17.52,1.15,26.27.23,10.38-1.08,20.77-2.29,31.11-3.76s19.15-6.47,26.76-13.53,15.71-12.54,25.82-14.9c7.42-1.73,14.66-1.9,21.35,2.53s7.6,10.76,2.62,16.92c-1,1.21-2,2.36-3.16,3.68.91.7,1.58,1.24,2.28,1.75,4.31,3.1,5.31,5.92,2.8,10.66-1.72,3.25-3.8,6.7-6.63,8.89-11.55,8.91-23.44,17.38-35.24,26-2.63,1.92-5.48,3.54-8.05,5.53-9.52,7.37-20.64,10.32-32.29,12-15.1,2.19-30.19,4.54-45.28,6.79-10.23,1.52-20.47,3-30.7,4.49a13.35,13.35,0,0,0-1.93.58Z" transform="translate(-65.23 -62.66)"/><path d="M379.11,321.91c-10.33-13.15-25-17-40.39-19.18-18.73-2.63-37.52-4.86-56.19-7.85a54.73,54.73,0,0,1-16-5.77c-14.43-7.47-29.24-13.83-45.4-16.21-8.55-1.26-17.25-1.63-25.9-2.14-5.71-.34-11.72-5.67-11.92-11.49,0-1.35,1.16-3.08,2.29-4.08,5.17-4.57,10.47-9,15.85-13.36,2.09-1.7,2.92-3.36,2-6.1-1.23-3.61-1.82-7.44-3.1-11a5.49,5.49,0,0,0-3.3-3.09c-7.29-1.57-14.63-2.88-22-4.07-2.79-.45-4-1.94-4-4.53,0-7.61,0-15.21.1-22.81,0-2.55,1.29-3.87,3.9-4.29,6.78-1.07,13.53-2.37,20.31-3.52,3.79-.64,4.83-1.64,5.64-5.34a75.74,75.74,0,0,1,2.39-9.08c.94-2.67.26-4.54-1.79-6.24-5-4.15-10-8.37-15-12.53-4-3.36-4.26-4.51-1.67-9,3.26-5.63,6.48-11.28,9.73-16.92,2-3.46,3.27-4,7-2.59,6.47,2.35,12.95,4.7,19.37,7.19a5,5,0,0,0,6.26-1.53,85.82,85.82,0,0,1,7.31-7.34,4.87,4.87,0,0,0,1.46-6c-2.42-6.34-4.68-12.74-7-19.12-1.58-4.3-1.18-5.41,2.75-7.68q8.44-4.91,16.88-9.81c3.95-2.3,5.17-2.13,8.06,1.33,4.17,5,8.4,10,12.44,15.08,2,2.55,4.21,3.14,7.25,2.12a87,87,0,0,1,9.71-2.51c2.21-.46,3.5-1.52,3.88-3.79,1.12-6.79,2.35-13.57,3.44-20.38.72-4.45,1.89-5.56,6.36-5.56,6.81,0,13.63,0,20.45,0,3.47,0,4.58,1,5.17,4.32,1.18,6.68,2.42,13.36,3.56,20.05.5,2.92,1.91,4.86,4.89,5.59,3.16.76,6.27,1.7,9.42,2.48A5.73,5.73,0,0,0,349.63,93c4.19-5.12,8.5-10.14,12.74-15.22,2.9-3.47,4.19-3.71,8.05-1.46l17.14,9.94c3.58,2.08,4.06,3.33,2.64,7.28-2.33,6.48-4.64,13-7.12,19.39-1,2.6-.48,4.43,1.58,6.26a102.88,102.88,0,0,1,7.52,7.54,4.46,4.46,0,0,0,5.53,1.29c6.34-2.44,12.72-4.75,19.09-7.11,4.48-1.66,5.81-1.14,8.15,3q4.74,8.37,9.58,16.67c2.19,3.78,2,5.24-1.42,8.1-5.13,4.33-10.23,8.71-15.47,12.9-2.28,1.83-2.79,3.72-1.82,6.45a50.48,50.48,0,0,1,2.55,9.38c.48,3.28,2.28,4.48,5.22,5,6.8,1.12,13.58,2.34,20.36,3.57,3.55.63,4.22,1.49,4.23,5.15,0,7.12-.08,14.23,0,21.34,0,3-1.11,4.56-4.11,5.05-6.51,1.07-13,2.35-19.48,3.43-4.78.79-5.21,1.14-6.36,5.88a59.08,59.08,0,0,1-2.24,7.94c-1.31,3.3-.48,5.52,2.27,7.66,5.13,4,10.06,8.28,15,12.5,3.11,2.63,3.32,4.15,1.32,7.65q-4.94,8.58-9.85,17.19c-2.31,4.05-3.3,4.46-7.61,2.87q-9.29-3.41-18.54-6.88c-3.81-1.42-4.65-1.1-7.38,2a45.48,45.48,0,0,1-5.45,5.39c-3.08,2.53-3.78,4.41-2.38,8.28,2.14,5.92,4.38,11.81,6.55,17.72,1.74,4.72,1.17,6.08-3.31,8.48C384.19,319,381.74,320.42,379.11,321.91Zm-4.35-121.36c.25-35.15-29.11-64-65.51-64.37-34.44-.35-64.82,29.35-65,63.62-.19,37.86,27.78,66.72,64.5,67.3C346.06,267.68,374.48,238.7,374.76,200.55Z" transform="translate(-65.23 -62.66)"/><path d="M65.23,336.23q0-27.25,0-54.5c0-5.93,2.13-8.51,8-8.64,9.17-.2,18.35-.14,27.52.05,4.4.09,6.8,2.7,7.16,7.09.07.88,0,1.77,0,2.66q0,53.48,0,106.93c0,7.52-2.57,10.11-10.12,10.13q-11.57,0-23.11,0c-6.83,0-9.45-2.69-9.45-9.5Z" transform="translate(-65.23 -62.66)"/></svg>