<svg id="street_light" data-name="street light" xmlns="http://www.w3.org/2000/svg" viewBox="0 0 275.37 485.62"><path d="M404.51,153H356.92c-.43,8.14-3.58,14.68-10,19.46a22.1,22.1,0,0,1-15.05,4.65c-22.88-1.66-23.55-24-23.55-24H260.47s-3.88-75.39,55.16-77.89c3-.13,12.3-2.31,24.12.42C404.51,72,402.79,146.86,404.51,153Z" transform="translate(-129.13 -25.28)"/><path d="M317.19,77.22C308.13,59.52,293.74,50,273.8,49.49c-12.23-.31-24.47-.15-36.71,0A48.14,48.14,0,0,0,189.3,95.67c-.08,1.78-.08,3.57-.08,5.35V350.69h-24c-.05-.86-.14-1.8-.14-2.74q0-124.6,0-249.22c0-36.93,25.5-66.79,61.65-72.6a62.13,62.13,0,0,1,9.33-.77q18.9-.13,37.79,0c30.58.22,57.92,20.33,67.8,51.87" transform="translate(-129.13 -25.28)"/><path d="M213.34,486.87h11.88v24H129.13V487H141v-3.84q0-57.6,0-115.19c0-3.91.77-7.44,3.66-10.26a11.76,11.76,0,0,1,8.47-3.41c16.07,0,32.14-.09,48.21.05,7.06.06,11.87,5,12,12.11.13,7.41,0,14.82,0,22.23v98.2Z" transform="translate(-129.13 -25.28)"/></svg>