<svg id="bulky_waste" data-name="bulky waste" xmlns="http://www.w3.org/2000/svg" viewBox="0 0 409.27 467.8"><defs><style>.cls-1,.cls-3{stroke:#000;}.cls-1,.cls-2,.cls-3{stroke-miterlimit:10;}.cls-1{stroke-width:20px;}.cls-2,.cls-3{fill:none;}.cls-2{stroke:#fff;stroke-linecap:round;stroke-width:22px;}.cls-3{stroke-width:8px;}</style></defs><path class="cls-1" d="M376.49,499H135.12c-10.54,0-24.16-8.62-24.16-19.16L88,140.72a.42.42,0,0,1,.42-.42H423.23a.42.42,0,0,1,.42.42l-23,339.12C400.65,490.38,387,499,376.49,499Z" transform="translate(-75.16 -41.2)"/><line class="cls-2" x1="274.52" y1="123.73" x2="251.76" y2="431.87"/><line class="cls-2" x1="186.97" y1="123.31" x2="186.97" y2="432.29"/><line class="cls-2" x1="88.9" y1="123.93" x2="116.69" y2="431.66"/><path d="M100,69.06H406.33A25.67,25.67,0,0,1,432,94.72v10.15a11.3,11.3,0,0,1-11.3,11.3h-335a11.3,11.3,0,0,1-11.3-11.3V94.72A25.67,25.67,0,0,1,100,69.06Z" transform="translate(-82.46 -18.06) rotate(-5.16)"/><rect class="cls-3" x="207.04" y="48.18" width="92.79" height="40.94" rx="12.96" transform="translate(-80.31 -18.13) rotate(-5.16)"/><path class="cls-3" d="M337.11,127.15" transform="translate(-75.16 -41.2)"/><path d="M345.53,127.15" transform="translate(-75.16 -41.2)"/><path d="M331.13,119.73c1.81-9,18.65-10.64,25-10.9,27.91-1.17,43.28-5.37,59.74-1.65,9,2,34.4,7.79,47,28.21,12.26,19.91,3.7,54.37-17.19,54.31-11.2,0,3-58.25-34.39-60.92-22.8-1.63-16-.26-67.91.37C333,129.27,330.73,121.7,331.13,119.73Z" transform="translate(-75.16 -41.2)"/><path d="M447,198.55c-8.29.44-16.11,14.51-16,26.9.1,11.37,6.83,13.38,15.66,34.38,6.91,16.43,6.58,24.23,10.89,24.85,5.87.85,13.76-12.56,16.34-24.51,3.68-17-3.35-31.16-7.49-39.49C461.65,211.15,455.18,198.12,447,198.55Z" transform="translate(-75.16 -41.2)"/><path d="M459.55,327.19c8.23-1.7,10.85-13.14,7.49-21.33-1.81-4.4-3.88-4.29-12.94-15.36-7.31-8.93-8.87-12.55-11.23-12.37s-2.72,3.74-6.13,17.49c-3.15,12.73-3.82,13.86-2.72,16.64C437.42,320.8,451.3,328.89,459.55,327.19Z" transform="translate(-75.16 -41.2)"/><path d="M439.74,334.72c-4.75,1.51-6.87,6.82-8.42,10.73-1.48,3.72-5.48,13.77,0,21.44,5.65,7.91,19.47,10.67,26.81,3.83s3.81-19.07,0-25.27C454.52,339.59,446.58,332.55,439.74,334.72Z" transform="translate(-75.16 -41.2)"/><path d="M437.45,383.74c-4.63,2.79-6,9.29-4.6,13.79,3.06,9.91,20.56,13.67,25.28,8.43,3.54-3.94.82-14-5.36-19.15C452.34,386.45,444.07,379.75,437.45,383.74Z" transform="translate(-75.16 -41.2)"/><path d="M466.55,372.26c-3.53.83-7.42,3.62-8.42,7.65-1.76,7.06,6.48,13.13,8.42,14.56,2.26,1.66,8.92,6.56,13.79,3.83,4.56-2.56,4.86-10.31,3.06-15.32C481,376.37,473.64,370.58,466.55,372.26Z" transform="translate(-75.16 -41.2)"/><path d="M427.49,411.32c-11.58,3.85-16.87,37.71-3.06,61.28,6.47,11,21.93,28,36.76,23.74,8.4-2.41,15.16-11.2,16.09-19.91.65-6.09-1.91-8.72-11.49-25.28C453,429,451.29,422.93,442,416.68,436.6,413,431.92,409.84,427.49,411.32Z" transform="translate(-75.16 -41.2)"/><path d="M463.49,413.62c-3.26.95-5.81,5.78-5.36,9.95.71,6.6,8.47,7.37,12.25,16.86,2,5.05,1.18,8.26,2.3,8.42,2.14.31,8.43-10.93,5.36-21.45C475.81,419.77,468.54,412.14,463.49,413.62Z" transform="translate(-75.16 -41.2)"/><path d="M606,476.43" transform="translate(-75.16 -41.2)"/></svg>