<svg xmlns="http://www.w3.org/2000/svg" viewBox="0 0 445.44 445.44"><defs><style>.cls-1{fill:none;stroke:#000;stroke-miterlimit:10;stroke-width:15px;}</style></defs><title>twitter</title><g id="Layer_2" data-name="Layer 2"><g id="twitter"><g id="black"><circle class="cls-1" cx="222.72" cy="222.72" r="215.22"/><path d="M179.69,336.46H165.61a7.92,7.92,0,0,0-1-.19,153.22,153.22,0,0,1-26.11-3.63c-17.37-3.94-33.59-10.75-49.07-19.48-2.57-1.45-4-3.56-5.24-6a10.25,10.25,0,0,1,6-1.77c2.18.11,4.38.08,6.57.12a118.15,118.15,0,0,0,20.59-1A106.58,106.58,0,0,0,159,288.81c.61-.39,1.15-.88,1.9-1.46l-1.95-.5c-19-4.57-33.22-15.12-41.61-33a42.54,42.54,0,0,1-2.69-7.32c-.5-1.89.49-2.92,2.47-3a33.92,33.92,0,0,1,4,.28,20.81,20.81,0,0,0,6.66-.3c-2.29-1.44-4.51-2.74-6.63-4.18a58.25,58.25,0,0,1-20-22.33,61.06,61.06,0,0,1-6.09-24.41,16,16,0,0,1,.19-3.66,1.91,1.91,0,0,1,2.37-1.79,13,13,0,0,1,3,.81c1.94.72,3.83,1.61,5.78,2.29s3.69,1.08,5.54,1.62a16.8,16.8,0,0,0-2.19-3A58.93,58.93,0,0,1,102,123.2a18,18,0,0,1,2.15-3.11,1.82,1.82,0,0,1,2.6-.36,15.08,15.08,0,0,1,2.43,2.09c2.41,2.59,4.71,5.28,7.15,7.84a154.37,154.37,0,0,0,42,31.39,156.58,156.58,0,0,0,43.91,14.53c4.8.84,9.65,1.37,14.59,2,0-2,0-3.68,0-5.4a104.33,104.33,0,0,1,.14-10.47c1.6-14.64,7.71-27.15,18.64-37,14.4-13,31.37-17.8,50.5-14.5A55.93,55.93,0,0,1,314,123.86a7.31,7.31,0,0,0,8.4,1.36q12.94-5.43,26.05-10.52c1.51-.59,3.26-.57,5.3-.9-.1,2.13.14,4-.35,5.57a48.14,48.14,0,0,1-3.09,7.17,62.79,62.79,0,0,1-10.08,14,4.39,4.39,0,0,0-.52,1.25,4.74,4.74,0,0,0,1.26-.1c4.79-1.65,9.58-3.3,14.34-5,2-.74,4-.35,6,.06-.25,1.82-.2,3.6-1.31,5.21A104.79,104.79,0,0,1,337.35,166a7.67,7.67,0,0,0-3.32,6.69,152.39,152.39,0,0,1-1.75,26.65,161.7,161.7,0,0,1-14.89,47.15A163.67,163.67,0,0,1,284,292.38a145.44,145.44,0,0,1-36.15,25.87,171.06,171.06,0,0,1-64,17.8C182.48,336.16,181.09,336.32,179.69,336.46Z"/></g></g></g></svg>