<svg width="48" height="48" xmlns="http://www.w3.org/2000/svg" xmlns:svg="http://www.w3.org/2000/svg"><style type="text/css">g{fill:#FFFFFF;}path{fill:#FFFFFF;}</style>
 <g>
  <title>Layer 1</title>
  <path id="svg_1" fill-rule="evenodd" d="m43,42l-38,0c-2.209,0 -4,-1.791 -4,-4l0,-28c0,-2.209 1.791,-4 4,-4l38,0c2.209,0 4,1.791 4,4l0,28c0,2.209 -1.791,4 -4,4zm-31,-34l-7,0c-1.104,0 -2,0.896 -2,2l0,2l9,0l0,-4zm11,0l-9,0l0,4l9,0l0,-4zm11,0l-9,0l0,4l9,0l0,-4zm11,2c0,-1.104 -0.896,-2 -2,-2l-7,0l0,4l9,0l0,0l0,-2zm0,4l0,0l-42,0l0,20l42,0l0,0l0,-20zm0,22l0,0l-9,0l0,4l-2,0l0,-4l-9,0l0,4l-2,0l0,-4l-9,0l0,4l-2,0l0,-4l-9,0l0,2c0,1.104 0.896,2 2,2l38,0c1.104,0 2,-0.896 2,-2l0,-2zm-23.379,-6.235c-0.172,0.139 -0.383,0.235 -0.621,0.235c-0.553,0 -1,-0.447 -1,-1l0,-10c0,-0.552 0.447,-1 1,-1c0.213,0 0.4,0.082 0.563,0.196l7.771,4.872c0.386,0.137 0.666,0.498 0.666,0.932c0,0.325 -0.165,0.601 -0.405,0.783l-7.974,4.982z" clip-rule="evenodd"/>
  <path stroke="#FFFFFF" d="m2.45691,10.41589c10.44404,-0.18901 21.72923,-0.36151 32.40355,-0.49911l10.78266,-0.10156" id="svg_2" stroke-width="5" fill="none"/>
  <path stroke="#FFFFFF" d="m2.15657,37.97197c0.83519,0 1.68676,0 2.58551,0c0.76314,0 1.61319,0 2.51794,0c0.8045,0 1.71035,-0.00932 2.49069,0c0.89692,0.01071 1.71532,0.14941 2.55353,0.22525c0.82149,0.07434 1.64928,0.07741 2.4957,0.07508c0.78124,-0.00215 1.64502,-0.09972 2.48272,-0.22056c0.93868,-0.1354 1.72858,-0.20734 2.55784,-0.33506c0.84846,-0.13068 1.68514,-0.12014 2.51404,-0.12014c0.8121,0 1.67418,0 2.58999,0c0.84507,0 1.69933,-0.01042 2.48087,0.04585c0.82899,0.05969 1.66201,0.10208 2.43256,0.10421c0.92102,0.00256 1.70342,0.0001 2.59323,0.0001c0.88084,0 1.6982,0 2.67896,0c0.7423,0 1.69413,0 2.34692,0c0.90199,0 1.89308,0 2.6463,0c0.83323,0 1.74347,0 2.55089,0l0.86217,0l0.84846,0l0.86148,0" id="svg_3" stroke-linecap="null" stroke-linejoin="null" stroke-dasharray="null" stroke-width="5" fill="none"/>
 </g>
</svg>
