<svg xmlns="http://www.w3.org/2000/svg" viewBox="0 0 445.44 445.44"><defs><style>.cls-1{fill:none;stroke:#000;stroke-miterlimit:10;stroke-width:15px;}</style></defs><title>youtube</title><g id="Layer_2" data-name="Layer 2"><g id="YouTube"><g id="black"><circle class="cls-1" cx="222.72" cy="222.72" r="215.22"/><path d="M230,325.76c-38.57-1.3-68.31-2.1-98-3.42-8.48-.37-17.19-1.23-25.29-3.6-17-5-27.41-16.4-30-34.3C72,251.39,72.32,218.2,74.18,185c.54-9.77,2.27-19.48,3.37-29.23,1.93-17.09,18.54-30.54,36.15-32.6,38.87-4.55,77.92-4.71,117-4.32,26.4.27,52.8,1.26,79.18,2.3a168.92,168.92,0,0,1,24.86,2.91c18.37,3.49,28.77,14.58,32,33.06,4.36,24.79,5.41,49.82,4.47,74.86-.69,18.3-2.26,36.63-4.65,54.79-2.44,18.49-16.84,32.06-35.69,33.37C294.35,322.67,257.78,324.25,230,325.76Zm-36.16-58.07,74.86-45.95-74.86-45.92Z"/></g></g></g></svg>